<?xml version="1.0" encoding="utf-8"?>
<!-- Generator: Adobe Illustrator 25.2.0, SVG Export Plug-In . SVG Version: 6.00 Build 0)  -->
<svg version="1.1" id="Layer_1" xmlns="http://www.w3.org/2000/svg" xmlns:xlink="http://www.w3.org/1999/xlink" x="0px" y="0px"
	 viewBox="0 0 582.4 189.8" style="enable-background:new 0 0 582.4 189.8;" xml:space="preserve">
<style type="text/css">
	.st0{fill:#1C4D57;}
	.st1{fill:#42B977;}
</style>
<g>
	<g>
		<path class="st0" d="M69.1,107.1l-1.4,23.5H0v-4c1.2-0.1,2.6-0.3,4.2-0.5c1.6-0.2,2.7-0.4,3.2-0.6c1.2-0.5,2.1-1.2,2.6-2
			c0.5-0.9,0.7-2,0.7-3.3V68.3c0-1.2-0.2-2.3-0.6-3.1c-0.4-0.8-1.3-1.5-2.7-2.2c-1.1-0.5-2.4-0.9-3.9-1.2c-1.5-0.3-2.7-0.5-3.6-0.6
			v-4h40.3v4c-1.1,0.1-2.4,0.3-3.9,0.4c-1.5,0.2-2.8,0.5-3.9,0.8c-1.3,0.4-2.2,1.1-2.7,2.1c-0.4,0.9-0.7,2-0.7,3.2v48.3
			c0,2.3,0.2,4.1,0.5,5.4c0.3,1.3,0.9,2.3,1.8,2.9c0.9,0.7,2.1,1.1,3.8,1.3c1.6,0.2,3.8,0.3,6.6,0.3c2.8,0,5.4-0.2,8-0.5
			c2.6-0.3,4.5-1,5.6-2.1c1.8-1.8,3.6-4.2,5.4-7.4s3.3-6.1,4.4-8.8H69.1z"/>
		<path class="st0" d="M131.2,129.5c-1.5,0.7-3.3,1.3-5.4,1.8c-2.1,0.6-4.3,0.8-6.6,0.8c-4.2,0-7.3-0.6-9.3-1.9
			c-2-1.3-3.4-3.1-4.1-5.4h-0.3c-1.2,1.2-2.3,2.2-3.4,3c-1.1,0.8-2.3,1.5-3.5,2.1c-1.6,0.8-3.2,1.3-4.7,1.7
			c-1.5,0.4-3.6,0.6-6.3,0.6c-4,0-7.4-1.2-10.3-3.5c-2.8-2.4-4.2-5.5-4.2-9.4c0-2.2,0.3-4.2,0.9-5.7c0.6-1.6,1.5-3,2.6-4.2
			c1-1.1,2.2-2,3.6-2.7s2.9-1.4,4.5-2c3.1-1.1,6.8-2.3,11.2-3.5s7.5-2.3,9.5-3.3v-5c0-0.9-0.1-2-0.2-3.4c-0.1-1.4-0.4-2.6-0.9-3.6
			c-0.5-1.1-1.2-2-2.3-2.8c-1-0.8-2.4-1.1-4.1-1.1c-1.5,0-2.8,0.2-3.8,0.6c-1,0.4-1.8,0.9-2.5,1.3c0.1,0.7,0.4,1.7,0.9,3.2
			c0.5,1.4,0.7,2.8,0.7,4.1c0,0.6-0.2,1.3-0.5,2.2c-0.3,0.9-0.8,1.6-1.3,2.1c-0.8,0.7-1.7,1.2-2.7,1.6s-2.5,0.6-4.5,0.6
			c-2.9,0-5.1-0.7-6.6-2.1c-1.5-1.4-2.2-3.2-2.2-5.5c0-1.9,0.8-3.7,2.3-5.2c1.5-1.5,3.4-2.8,5.6-3.8c2.2-1,4.7-1.8,7.5-2.4
			c2.8-0.6,5.4-0.9,7.9-0.9c3.3,0,6.4,0.2,9.2,0.6c2.8,0.4,5.3,1.2,7.6,2.5c2.1,1.2,3.8,3,5.1,5.3c1.3,2.3,1.9,5.3,1.9,9
			c0,3.9-0.1,8.5-0.2,13.9s-0.2,8.9-0.2,10.6c0,1.6,0.2,2.8,0.7,3.7c0.5,0.9,1.2,1.6,2.1,2c0.6,0.3,1.5,0.4,2.8,0.5
			c1.3,0.1,2.4,0.1,3.4,0.1V129.5z M105.5,102.6c-1.9,0.7-3.9,1.4-5.8,2.3c-1.9,0.8-3.5,1.7-4.7,2.7c-1.3,1-2.3,2.2-3,3.7
			c-0.7,1.5-1.1,3.3-1.1,5.3c0,2.7,0.6,4.7,1.8,5.9c1.2,1.2,2.7,1.8,4.5,1.8c1.9,0,3.5-0.4,4.7-1.2c1.2-0.8,2.3-1.7,3.2-2.9
			L105.5,102.6z"/>
		<path class="st0" d="M203.5,130.6h-31.1v-3.8c0.7-0.1,1.4-0.2,2.4-0.3s1.6-0.3,2.1-0.5c0.7-0.4,1.2-0.9,1.6-1.7
			c0.3-0.7,0.5-1.8,0.5-3.2V97c0-3.5-0.6-6.2-1.9-7.9c-1.3-1.8-3.2-2.7-5.7-2.7c-1.4,0-2.7,0.2-3.9,0.6c-1.2,0.4-2.4,1-3.5,1.8
			c-1,0.7-1.8,1.4-2.4,2.1c-0.6,0.7-1.1,1.4-1.5,1.9v27.8c0,1.2,0.2,2.2,0.5,3c0.3,0.8,0.9,1.4,1.7,1.8c0.6,0.3,1.2,0.6,2.1,0.8
			c0.8,0.2,1.6,0.4,2.4,0.5v3.8h-31.5v-3.8c0.9-0.1,1.7-0.2,2.6-0.3c0.9-0.1,1.6-0.3,2.3-0.5c1.1-0.4,1.9-1,2.3-1.8
			c0.4-0.8,0.6-1.8,0.6-3.1V91.1c0-1.1-0.3-2.1-0.8-3.2c-0.6-1-1.3-1.9-2.2-2.5c-0.6-0.4-1.4-0.8-2.4-1c-0.9-0.3-2-0.5-3.1-0.6V80
			l24.7-1.3l0.8,0.8v7.5h0.2c1-0.9,2.1-1.9,3.5-3.1c1.4-1.2,2.7-2.2,3.8-2.9c1.3-0.8,2.9-1.5,5-2.1c2.1-0.6,4.3-0.9,6.6-0.9
			c5.6,0,9.8,1.6,12.7,4.8c2.8,3.2,4.2,7.4,4.2,12.7v25.4c0,1.3,0.2,2.3,0.6,3.1c0.4,0.8,1.1,1.4,2.1,1.8c0.6,0.2,1.2,0.5,2,0.7
			c0.8,0.2,1.7,0.4,2.8,0.5V130.6z"/>
		<path class="st0" d="M275.2,129.5l-25.5,1.5l-0.8-0.7v-4.8l-0.4-0.1c-1.7,1.8-4,3.4-6.8,4.8c-2.9,1.4-5.8,2-8.7,2
			c-7,0-12.7-2.6-17.2-7.8c-4.5-5.2-6.8-11.9-6.8-20.1c0-7.3,2.5-13.5,7.6-18.7c5-5.2,11.2-7.8,18.3-7.8c2.8,0,5.5,0.3,8,1
			c2.5,0.6,4.5,1.4,5.9,2.3V64.2c0-1.3-0.3-2.5-0.8-3.6c-0.5-1.1-1.2-2-2.1-2.6c-1.1-0.8-2.4-1.3-4-1.6c-1.6-0.3-3.2-0.6-4.8-0.7
			v-3.8l28-1.3l0.8,0.8v67.8c0,1.3,0.2,2.4,0.6,3.3c0.4,0.9,1.1,1.6,2.1,2.1c0.7,0.4,1.8,0.7,3.2,0.8s2.5,0.3,3.4,0.3V129.5z
			 M248.8,120.3V91.1c-0.2-0.8-0.6-1.7-1-2.6c-0.4-1-1-1.9-1.8-2.7c-0.7-0.7-1.6-1.4-2.8-1.9c-1.2-0.6-2.5-0.8-3.9-0.8
			c-3.4,0-6.3,1.9-8.5,5.8s-3.3,9.4-3.3,16.5c0,2.8,0.2,5.3,0.6,7.5c0.4,2.2,1.1,4.3,2.1,6.1c1,1.8,2.3,3.3,3.8,4.3
			c1.6,1,3.4,1.6,5.7,1.6c2.1,0,3.8-0.4,5.2-1.2C246.3,122.7,247.6,121.7,248.8,120.3z"/>
		<path class="st0" d="M336.8,132.6c-4.5,0-8.7-0.6-12.5-1.7c-3.9-1.1-7.2-2.4-9.9-4l-3.6,3.6h-4.4l-0.7-26.5h4.4
			c1,2.5,2.3,5.2,3.8,8c1.6,2.8,3.3,5.3,5.4,7.5c2.1,2.3,4.5,4.2,7.1,5.7c2.6,1.5,5.6,2.2,9.1,2.2c4.7,0,8.3-1.1,10.8-3.4
			c2.5-2.3,3.8-5.2,3.8-8.7c0-2.9-1.1-5.3-3.2-7.2s-5.4-3.6-9.9-5.1c-2.9-0.9-5.6-1.8-8-2.6s-4.7-1.6-6.9-2.4c-4.9-2-8.6-4.8-11-8.4
			s-3.6-7.8-3.6-12.3c0-2.9,0.6-5.6,1.9-8.3c1.2-2.6,3.1-5,5.4-7.1c2.3-2,5.2-3.6,8.7-4.8s7.4-1.9,11.6-1.9c4.1,0,7.9,0.6,11.4,1.7
			s6.3,2.3,8.4,3.4l3.2-3.1h4.5l0.4,25h-4.5c-1-2.7-2.3-5.5-3.6-8.3c-1.4-2.8-2.9-5.2-4.4-7c-1.7-2-3.6-3.6-5.8-4.8
			c-2.2-1.2-4.8-1.8-7.8-1.8c-3.7,0-6.8,1.1-9.1,3.2s-3.5,4.7-3.5,7.8c0,2.9,1,5.3,3.1,7.2c2.1,1.9,5.3,3.5,9.6,4.9
			c2.6,0.9,5.2,1.7,7.8,2.6c2.7,0.9,5,1.7,7.1,2.5c5,1.9,8.8,4.6,11.4,8c2.6,3.4,3.9,7.6,3.9,12.7c0,3.2-0.7,6.3-2.2,9.2
			c-1.5,3-3.5,5.4-6,7.4c-2.8,2.2-6,3.9-9.6,5C345.9,132,341.7,132.6,336.8,132.6z"/>
		<path class="st0" d="M433.4,129.5c-1.5,0.7-3.3,1.3-5.4,1.8c-2.1,0.6-4.3,0.8-6.6,0.8c-4.2,0-7.3-0.6-9.3-1.9
			c-2-1.3-3.4-3.1-4.1-5.4h-0.3c-1.2,1.2-2.3,2.2-3.4,3c-1.1,0.8-2.3,1.5-3.5,2.1c-1.6,0.8-3.2,1.3-4.7,1.7
			c-1.5,0.4-3.6,0.6-6.3,0.6c-4,0-7.4-1.2-10.3-3.5c-2.8-2.4-4.2-5.5-4.2-9.4c0-2.2,0.3-4.2,0.9-5.7c0.6-1.6,1.5-3,2.6-4.2
			c1-1.1,2.2-2,3.6-2.7c1.4-0.7,2.9-1.4,4.5-2c3.1-1.1,6.8-2.3,11.2-3.5c4.4-1.2,7.5-2.3,9.5-3.3v-5c0-0.9-0.1-2-0.2-3.4
			c-0.1-1.4-0.4-2.6-0.9-3.6c-0.5-1.1-1.2-2-2.3-2.8c-1-0.8-2.4-1.1-4.1-1.1c-1.5,0-2.8,0.2-3.8,0.6c-1,0.4-1.8,0.9-2.5,1.3
			c0.1,0.7,0.4,1.7,0.9,3.2c0.5,1.4,0.7,2.8,0.7,4.1c0,0.6-0.2,1.3-0.5,2.2c-0.3,0.9-0.8,1.6-1.3,2.1c-0.8,0.7-1.7,1.2-2.7,1.6
			c-1,0.4-2.5,0.6-4.5,0.6c-2.9,0-5.1-0.7-6.6-2.1c-1.5-1.4-2.2-3.2-2.2-5.5c0-1.9,0.8-3.7,2.3-5.2c1.5-1.5,3.4-2.8,5.6-3.8
			c2.2-1,4.7-1.8,7.5-2.4c2.8-0.6,5.5-0.9,7.9-0.9c3.3,0,6.4,0.2,9.2,0.6c2.8,0.4,5.3,1.2,7.6,2.5c2.1,1.2,3.8,3,5.1,5.3
			c1.3,2.3,1.9,5.3,1.9,9c0,3.9-0.1,8.5-0.2,13.9s-0.2,8.9-0.2,10.6c0,1.6,0.2,2.8,0.7,3.7c0.5,0.9,1.2,1.6,2.1,2
			c0.6,0.3,1.5,0.4,2.8,0.5c1.3,0.1,2.4,0.1,3.4,0.1V129.5z M407.7,102.6c-1.9,0.7-3.9,1.4-5.8,2.3c-1.9,0.8-3.5,1.7-4.7,2.7
			c-1.3,1-2.3,2.2-3,3.7c-0.7,1.5-1.1,3.3-1.1,5.3c0,2.7,0.6,4.7,1.8,5.9c1.2,1.2,2.7,1.8,4.5,1.8c1.9,0,3.5-0.4,4.7-1.2
			c1.2-0.8,2.3-1.7,3.2-2.9L407.7,102.6z"/>
		<path class="st0" d="M469,130.6h-32.6v-3.8c0.9-0.1,1.8-0.2,2.6-0.3s1.6-0.3,2.3-0.5c1.1-0.4,1.9-1,2.3-1.8
			c0.4-0.8,0.6-1.8,0.6-3.1V63.9c0-1.3-0.3-2.5-0.8-3.6c-0.5-1.1-1.2-2-2.1-2.6c-0.7-0.4-1.7-0.9-3.1-1.3c-1.4-0.4-2.6-0.7-3.7-0.7
			v-3.8l26.1-1.3l0.8,0.8v69.2c0,1.3,0.2,2.3,0.7,3.1c0.5,0.8,1.2,1.4,2.2,1.9c0.7,0.3,1.4,0.6,2.2,0.8c0.8,0.2,1.7,0.4,2.7,0.5
			V130.6z"/>
		<path class="st0" d="M529.5,118.2c-1.2,2-2.7,3.8-4.4,5.6c-1.7,1.7-3.6,3.2-5.8,4.5c-2.3,1.3-4.6,2.3-7,3c-2.4,0.7-5.1,1-8.1,1
			c-5.1,0-9.5-0.7-13.2-2.2c-3.7-1.4-6.8-3.4-9.2-5.8c-2.4-2.4-4.2-5.3-5.4-8.7c-1.2-3.3-1.8-6.9-1.8-10.8c0-3.5,0.6-6.9,1.9-10.1
			c1.3-3.2,3.1-6.1,5.5-8.6c2.3-2.4,5.3-4.4,8.9-6c3.6-1.5,7.6-2.3,12-2.3c4.8,0,8.8,0.6,11.9,1.8c3.1,1.2,5.7,2.8,7.7,4.9
			c2,2,3.4,4.3,4.3,7c0.9,2.7,1.3,5.5,1.3,8.4v3.4h-35c0,7.1,1.4,12.5,4.1,16.1c2.7,3.7,7.1,5.5,13,5.5c3.2,0,6.2-0.9,8.7-2.7
			c2.6-1.8,4.8-4,6.6-6.8L529.5,118.2z M509.7,98.6c0-2.1-0.1-4.2-0.3-6.4c-0.2-2.2-0.6-3.9-1.1-5.3c-0.6-1.6-1.4-2.8-2.4-3.7
			c-1-0.8-2.3-1.2-3.9-1.2c-2.7,0-4.8,1.3-6.4,4c-1.6,2.7-2.4,7-2.6,12.8L509.7,98.6z"/>
		<path class="st0" d="M558.4,132.4c-3.3,0-6.6-0.5-9.8-1.5c-3.2-1-5.7-2-7.4-3.1l-1.6,3.5h-4l-0.7-19.3h3.8
			c0.5,1.6,1.4,3.3,2.6,5.3c1.2,1.9,2.6,3.7,4.1,5.3c1.6,1.6,3.5,2.9,5.6,3.9c2.1,1.1,4.3,1.6,6.7,1.6c3.1,0,5.5-0.6,7-1.8
			c1.5-1.2,2.3-3.1,2.3-5.7c0-1.4-0.3-2.5-1-3.4c-0.7-0.9-1.6-1.7-2.8-2.3c-1.3-0.7-2.8-1.3-4.4-1.8c-1.6-0.5-3.6-1.1-5.9-1.8
			c-2.3-0.7-4.4-1.4-6-2.1c-1.7-0.7-3.4-1.8-5.2-3.3c-1.6-1.3-2.8-3-3.7-4.9c-0.9-1.9-1.4-4.2-1.4-6.8c0-4.9,2-8.8,6.1-11.8
			c4.1-3,9.4-4.5,16.1-4.5c3.1,0,6,0.3,8.7,1c2.6,0.6,4.9,1.3,6.6,2.1l1.1-3.1h3.9l0.8,17.6h-3.6c-1.2-3.6-3.3-6.7-6.2-9.3
			c-2.9-2.6-6.1-3.9-9.5-3.9c-2.7,0-4.7,0.6-6.3,1.7c-1.5,1.1-2.3,2.6-2.3,4.6c0,2.6,1.1,4.5,3.3,5.7c2.2,1.2,5.3,2.3,9.3,3.3
			c6.2,1.6,10.7,3.8,13.5,6.5c2.9,2.7,4.3,6.2,4.3,10.5c0,5.7-2.2,10-6.6,13.1C571.3,130.8,565.5,132.4,558.4,132.4z"/>
	</g>
	<g>
		<polygon class="st1" points="453.9,5.5 483.5,72.6 488,72.6 456,0 347.7,47.7 358,47.7 		"/>
		<polygon class="st1" points="384.4,184.4 363.2,136.1 358.6,136.1 382.3,189.8 504.3,136.1 494,136.1 		"/>
	</g>
</g>
</svg>
